<svg width="21" height="21" viewBox="0 0 21 21" fill="none" xmlns="http://www.w3.org/2000/svg">
<path d="M10.0475 13.3966C11.8972 13.3966 13.3967 11.8971 13.3967 10.0475C13.3967 8.19777 11.8972 6.6983 10.0475 6.6983C8.19783 6.6983 6.69836 8.19777 6.69836 10.0475C6.69836 11.8971 8.19783 13.3966 10.0475 13.3966Z" stroke="black" stroke-width="1.5" stroke-linecap="round" stroke-linejoin="round"/>
<path d="M2.51184 13.3966V6.69828C2.51184 4.38618 4.38618 2.51184 6.69828 2.51184H13.3966C15.7087 2.51184 17.583 4.38618 17.583 6.69828V13.3966C17.583 15.7087 15.7087 17.583 13.3966 17.583H6.69828C4.38618 17.583 2.51184 15.7087 2.51184 13.3966Z" stroke="black" stroke-width="1.5"/>
<path d="M14.6526 5.45145L14.6616 5.44147" stroke="black" stroke-width="1.5" stroke-linecap="round" stroke-linejoin="round"/>
</svg>
