<svg width="21" height="21" viewBox="0 0 21 21" fill="none" xmlns="http://www.w3.org/2000/svg">
<g clip-path="url(#clip0_2144_4798)">
<path d="M18.4203 10.0474C18.4203 14.6716 14.6716 18.4203 10.0474 18.4203C8.5224 18.4203 7.09254 18.0126 5.861 17.3002L1.67456 18.0017L2.37126 13.3966C1.92314 12.371 1.67456 11.2382 1.67456 10.0474C1.67456 5.42322 5.42322 1.67456 10.0474 1.67456C14.6716 1.67456 18.4203 5.42322 18.4203 10.0474Z" stroke="black" stroke-width="1.5" stroke-linecap="round" stroke-linejoin="round"/>
<path d="M10.8515 11.6118L12.5927 11.2719L14.2338 11.902V13.4289C14.2338 13.9366 13.797 14.3237 13.3045 14.2157C12.0293 13.9362 9.71223 13.2328 8.10344 11.6118C6.57147 10.0682 6.0474 7.91852 5.86966 6.73287C5.79846 6.25795 6.17385 5.86102 6.65057 5.86102H8.23641L8.85175 7.50954L8.52622 9.26887" stroke="black" stroke-width="1.5" stroke-linecap="round" stroke-linejoin="round"/>
</g>
<defs>
<clipPath id="clip0_2144_4798">
<rect width="20.0949" height="20.0949" fill="white"/>
</clipPath>
</defs>
</svg>
