<svg width="20" height="20" viewBox="0 0 20 20" fill="none" xmlns="http://www.w3.org/2000/svg">
<path d="M7.6875 13.0835C7.6875 13.6968 7.93114 14.285 8.36482 14.7187C8.79849 15.1524 9.38669 15.396 10 15.396C10.6133 15.396 11.2015 15.1524 11.6352 14.7187C12.0689 14.285 12.3125 13.6968 12.3125 13.0835C12.3125 12.4702 12.0689 11.882 11.6352 11.4483C11.2015 11.0146 10.6133 10.771 10 10.771C9.38669 10.771 8.79849 11.0146 8.36482 11.4483C7.93114 11.882 7.6875 12.4702 7.6875 13.0835Z" stroke="black" stroke-width="1.5"/>
<path d="M10 15.5962L8.2557 17.2685C8.0059 17.508 7.88099 17.6277 7.77522 17.6692C7.53419 17.7636 7.26682 17.6827 7.14003 17.4771C7.08438 17.387 7.06705 17.2242 7.03237 16.8987C7.01279 16.7149 7.003 16.6231 6.97328 16.5461C6.90676 16.3738 6.76696 16.2398 6.58726 16.176C6.50699 16.1475 6.41115 16.1382 6.21947 16.1194C5.87999 16.0862 5.71024 16.0695 5.61614 16.0162C5.40169 15.8946 5.31741 15.6383 5.4159 15.4072C5.45912 15.3058 5.58402 15.1861 5.83382 14.9466L6.97328 13.8541L7.77522 13.0522" stroke="black" stroke-width="1.5"/>
<path d="M10 15.5959L11.7443 17.2682C11.9941 17.5077 12.119 17.6274 12.2248 17.6688C12.4658 17.7633 12.7331 17.6825 12.8599 17.4769C12.9156 17.3866 12.9329 17.2239 12.9676 16.8985C12.9872 16.7147 12.997 16.6228 13.0267 16.5459C13.0933 16.3736 13.233 16.2396 13.4127 16.1758C13.493 16.1473 13.5888 16.1379 13.7806 16.1192C14.12 16.0859 14.2898 16.0693 14.3839 16.0159C14.5983 15.8944 14.6826 15.638 14.5841 15.407C14.5409 15.3055 14.4159 15.1858 14.1662 14.9463L13.0267 13.8539L12.3125 13.1396" stroke="black" stroke-width="1.5"/>
<path d="M14.1006 14.6215C15.621 14.6054 16.4684 14.5101 17.031 13.9475C17.7083 13.2702 17.7083 12.1801 17.7083 9.99984V6.9165C17.7083 4.73626 17.7083 3.64614 17.031 2.96882C16.3537 2.2915 15.2636 2.2915 13.0833 2.2915H6.91667C4.73642 2.2915 3.6463 2.2915 2.96898 2.96882C2.29167 3.64614 2.29167 4.73626 2.29167 6.9165V9.99984C2.29167 12.1801 2.29167 13.2702 2.96898 13.9475C3.56128 14.5398 4.46925 14.6142 6.14583 14.6235" stroke="black" stroke-width="1.5"/>
<path d="M7.6875 5.375H12.3125" stroke="black" stroke-width="1.5" stroke-linecap="round"/>
<path d="M6.14583 8.07275H13.8542" stroke="black" stroke-width="1.5" stroke-linecap="round"/>
</svg>
