<svg width="20" height="20" viewBox="0 0 20 20" fill="none" xmlns="http://www.w3.org/2000/svg">
<path d="M8.29085 3.44765C9.38619 2.93412 10.6137 2.93412 11.7091 3.44765L16.8669 5.86574C17.9888 6.39172 17.9888 8.21248 16.8669 8.73845L11.7092 11.1566C10.6138 11.67 9.38626 11.67 8.29092 11.1566L3.13311 8.73845C2.01118 8.21245 2.01119 6.39169 3.13311 5.86571L8.29085 3.44765Z" stroke="black" stroke-width="1.5"/>
<path d="M2.29167 7.30225V11.5418" stroke="black" stroke-width="1.5" stroke-linecap="round"/>
<path d="M15.3958 9.61475V13.5656C15.3958 14.3426 15.0077 15.0701 14.328 15.4466C13.1961 16.0733 11.3844 16.9377 10 16.9377C8.61558 16.9377 6.80389 16.0733 5.67203 15.4466C4.99228 15.0701 4.60417 14.3426 4.60417 13.5656V9.61475" stroke="black" stroke-width="1.5" stroke-linecap="round"/>
</svg>
