<svg width="20" height="20" viewBox="0 0 20 20" fill="none" xmlns="http://www.w3.org/2000/svg">
<path d="M2.29167 9.99984C2.29167 11.0121 2.49105 12.0145 2.87843 12.9497C3.26581 13.8849 3.8336 14.7347 4.54939 15.4505C5.26517 16.1662 6.11493 16.734 7.05015 17.1214C7.98537 17.5088 8.98773 17.7082 10 17.7082C11.0123 17.7082 12.0146 17.5088 12.9499 17.1214C13.8851 16.734 14.7348 16.1662 15.4506 15.4505C16.1664 14.7347 16.7342 13.8849 17.1216 12.9497C17.509 12.0145 17.7083 11.0121 17.7083 9.99984C17.7083 7.95546 16.8962 5.99482 15.4506 4.54922C14.005 3.10363 12.0444 2.2915 10 2.2915C7.95562 2.2915 5.99498 3.10363 4.54939 4.54922C3.10379 5.99482 2.29167 7.95546 2.29167 9.99984Z" stroke="black" stroke-width="1.5"/>
<path d="M8.55469 7.59131C8.55469 6.79309 9.2018 6.146 10 6.146C10.7982 6.146 11.4453 6.79309 11.4453 7.59131C11.4453 8.12122 11.1601 8.58453 10.7349 8.83613C10.3685 9.05289 10 9.38172 10 9.80745V10.771" stroke="black" stroke-width="1.5" stroke-linecap="round"/>
<path d="M9.22917 13.0833C9.22917 13.2878 9.31038 13.4838 9.45494 13.6284C9.5995 13.773 9.79556 13.8542 10 13.8542C10.2044 13.8542 10.4005 13.773 10.5451 13.6284C10.6896 13.4838 10.7708 13.2878 10.7708 13.0833C10.7708 12.8789 10.6896 12.6828 10.5451 12.5383C10.4005 12.3937 10.2044 12.3125 10 12.3125C9.79556 12.3125 9.5995 12.3937 9.45494 12.5383C9.31038 12.6828 9.22917 12.8789 9.22917 13.0833Z" fill="black"/>
</svg>
