<svg width="21" height="21" viewBox="0 0 21 21" fill="none" xmlns="http://www.w3.org/2000/svg">
<path d="M18.625 18.625H2.375" stroke="black" stroke-width="1.5" stroke-linecap="round"/>
<path d="M14.5625 18.625V5.625C14.5625 4.09293 14.5625 3.3269 14.0865 2.85095C13.6106 2.375 12.8446 2.375 11.3125 2.375H9.6875C8.15543 2.375 7.3894 2.375 6.91345 2.85095C6.4375 3.3269 6.4375 4.09293 6.4375 5.625V18.625" stroke="black" stroke-width="1.5"/>
<path d="M17.8125 18.625V7.65625C17.8125 6.51513 17.8125 5.94456 17.5386 5.5347C17.4201 5.35727 17.2677 5.20492 17.0903 5.08636C16.6804 4.8125 16.1099 4.8125 14.9688 4.8125" stroke="black" stroke-width="1.5"/>
<path d="M3.1875 18.625V7.65625C3.1875 6.51513 3.1875 5.94456 3.46136 5.5347C3.57992 5.35727 3.73226 5.20492 3.9097 5.08636C4.31956 4.8125 4.89013 4.8125 6.03125 4.8125" stroke="black" stroke-width="1.5"/>
<path d="M10.5 18.625V16.1875" stroke="black" stroke-width="1.5" stroke-linecap="round"/>
<path d="M8.875 10.5H12.125" stroke="black" stroke-width="1.5" stroke-linecap="round"/>
<path d="M5.21875 9.6875H6.4375" stroke="black" stroke-width="1.5" stroke-linecap="round"/>
<path d="M5.21875 12.125H6.4375" stroke="black" stroke-width="1.5" stroke-linecap="round"/>
<path d="M14.5625 9.6875H15.7812" stroke="black" stroke-width="1.5" stroke-linecap="round"/>
<path d="M14.5625 12.125H15.7812" stroke="black" stroke-width="1.5" stroke-linecap="round"/>
<path d="M5.21875 7.25H6.4375" stroke="black" stroke-width="1.5" stroke-linecap="round"/>
<path d="M14.5625 7.25H15.7812" stroke="black" stroke-width="1.5" stroke-linecap="round"/>
<path d="M8.875 12.9375H12.125" stroke="black" stroke-width="1.5" stroke-linecap="round"/>
<path d="M10.5 8.0625V4.8125" stroke="black" stroke-width="1.5" stroke-linecap="round" stroke-linejoin="round"/>
<path d="M12.125 6.4375H8.875" stroke="black" stroke-width="1.5" stroke-linecap="round" stroke-linejoin="round"/>
</svg>
