<svg width="20" height="20" viewBox="0 0 20 20" fill="none" xmlns="http://www.w3.org/2000/svg">
<path d="M17.7083 9.99984C17.7083 11.0121 17.5089 12.0145 17.1216 12.9497C16.7342 13.8849 16.1664 14.7347 15.4506 15.4505C14.7348 16.1663 13.8851 16.734 12.9498 17.1214C12.0147 17.5088 11.0123 17.7082 10 17.7082C8.98774 17.7082 7.98537 17.5088 7.05015 17.1214C6.11493 16.734 5.26517 16.1663 4.54939 15.4505C3.8336 14.7347 3.26581 13.8849 2.87843 12.9497C2.49105 12.0145 2.29167 11.0121 2.29167 9.99984C2.29167 8.98758 2.49105 7.9852 2.87843 7.04998C3.26581 6.11477 3.8336 5.26501 4.54939 4.54922C5.26517 3.83344 6.11493 3.26564 7.05015 2.87826C7.98537 2.49089 8.98774 2.2915 10 2.2915C11.0123 2.2915 12.0147 2.49089 12.9498 2.87827C13.8851 3.26564 14.7348 3.83344 15.4506 4.54922C16.1664 5.26501 16.7342 6.11477 17.1216 7.04999C17.5089 7.9852 17.7083 8.98758 17.7083 9.99984Z" stroke="black" stroke-width="1.5"/>
<path d="M13.0833 9.99984C13.0833 11.0121 13.0036 12.0145 12.8486 12.9497C12.6937 13.8849 12.4666 14.7347 12.1802 15.4505C11.8939 16.1663 11.554 16.734 11.1799 17.1214C10.8058 17.5088 10.4049 17.7082 10 17.7082C9.59508 17.7082 9.19417 17.5088 8.82009 17.1214C8.44597 16.734 8.10607 16.1663 7.81975 15.4505C7.53344 14.7347 7.30632 13.8849 7.15137 12.9497C6.99642 12.0145 6.91667 11.0121 6.91667 9.99984C6.91667 8.98758 6.99642 7.9852 7.15137 7.04998C7.30632 6.11477 7.53344 5.26501 7.81975 4.54922C8.10607 3.83344 8.44597 3.26564 8.82009 2.87826C9.19417 2.49089 9.59508 2.2915 10 2.2915C10.4049 2.2915 10.8058 2.49089 11.1799 2.87827C11.554 3.26564 11.8939 3.83344 12.1802 4.54922C12.4666 5.26501 12.6937 6.11477 12.8486 7.04999C13.0036 7.9852 13.0833 8.98758 13.0833 9.99984Z" stroke="black" stroke-width="1.5"/>
<path d="M2.29167 10H17.7083" stroke="black" stroke-width="1.5" stroke-linecap="round"/>
</svg>
