<svg width="21" height="21" viewBox="0 0 21 21" fill="none" xmlns="http://www.w3.org/2000/svg">
<path d="M3.1875 7.25C3.1875 4.9519 3.1875 3.80286 3.90143 3.08893C4.61536 2.375 5.7644 2.375 8.0625 2.375H12.9375C15.2356 2.375 16.3846 2.375 17.0986 3.08893C17.8125 3.80286 17.8125 4.9519 17.8125 7.25V13.75C17.8125 16.0481 17.8125 17.1971 17.0986 17.9111C16.3846 18.625 15.2356 18.625 12.9375 18.625H8.0625C5.7644 18.625 4.61536 18.625 3.90143 17.9111C3.1875 17.1971 3.1875 16.0481 3.1875 13.75V7.25Z" stroke="black" stroke-width="1.5"/>
<path d="M7.25 2.78125V18.625" stroke="black" stroke-width="1.5" stroke-linecap="round"/>
<path d="M2.375 10.5H4" stroke="black" stroke-width="1.5" stroke-linecap="round"/>
<path d="M2.375 13.75H4" stroke="black" stroke-width="1.5" stroke-linecap="round"/>
<path d="M2.375 7.25H4" stroke="black" stroke-width="1.5" stroke-linecap="round"/>
<path d="M10.0938 6.03125H14.1562" stroke="black" stroke-width="1.5" stroke-linecap="round"/>
<path d="M10.0938 8.875H14.1562" stroke="black" stroke-width="1.5" stroke-linecap="round"/>
</svg>
