<svg width="20" height="20" viewBox="0 0 20 20" fill="none" xmlns="http://www.w3.org/2000/svg">
<path d="M15.2024 8.2343V7.69117C15.2024 4.70901 12.8732 2.2915 10 2.2915C7.12677 2.2915 4.79755 4.70901 4.79755 7.69117V8.2343C4.79755 8.88614 4.61166 9.52331 4.2633 10.0657L3.40965 11.3947C2.62992 12.6086 3.22518 14.2586 4.58132 14.6425C8.12899 15.6467 11.871 15.6467 15.4187 14.6425C16.7749 14.2586 17.3701 12.6086 16.5903 11.3947L15.7367 10.0657C15.3884 9.52331 15.2024 8.88614 15.2024 8.2343Z" stroke="black" stroke-width="1.5"/>
<path d="M6.53125 15.396C7.03617 16.7433 8.39856 17.7085 10 17.7085C11.6014 17.7085 12.9639 16.7433 13.4688 15.396" stroke="black" stroke-width="1.5" stroke-linecap="round"/>
<path d="M10 5.375V8.45833" stroke="black" stroke-width="1.5" stroke-linecap="round"/>
</svg>
