<svg width="21" height="21" viewBox="0 0 21 21" fill="none" xmlns="http://www.w3.org/2000/svg">
<path d="M7.25 5.625C7.25 6.48695 7.59241 7.3136 8.2019 7.9231C8.8114 8.53259 9.63805 8.875 10.5 8.875C11.362 8.875 12.1886 8.53259 12.7981 7.9231C13.4076 7.3136 13.75 6.48695 13.75 5.625C13.75 4.76305 13.4076 3.9364 12.7981 3.3269C12.1886 2.71741 11.362 2.375 10.5 2.375C9.63805 2.375 8.8114 2.71741 8.2019 3.3269C7.59241 3.9364 7.25 4.76305 7.25 5.625Z" stroke="black" stroke-width="1.5"/>
<path d="M11.3125 15.375C11.3125 16.237 11.6549 17.0636 12.2644 17.6731C12.8739 18.2826 13.7005 18.625 14.5625 18.625C15.4245 18.625 16.2511 18.2826 16.8606 17.6731C17.4701 17.0636 17.8125 16.237 17.8125 15.375C17.8125 14.513 17.4701 13.6864 16.8606 13.0769C16.2511 12.4674 15.4245 12.125 14.5625 12.125C13.7005 12.125 12.8739 12.4674 12.2644 13.0769C11.6549 13.6864 11.3125 14.513 11.3125 15.375Z" stroke="black" stroke-width="1.5"/>
<path d="M13.479 15.3751L14.1562 16.1876L15.6457 14.6528" stroke="black" stroke-width="1.5" stroke-linecap="round" stroke-linejoin="round"/>
<path d="M12.125 17.6779C11.6101 17.7655 11.0647 17.8125 10.5 17.8125C7.35888 17.8125 4.8125 16.3574 4.8125 14.5625C4.8125 12.7676 7.35888 11.3125 10.5 11.3125C11.8922 11.3125 13.1676 11.5983 14.1562 12.0729" stroke="black" stroke-width="1.5"/>
</svg>
