<svg width="20" height="20" viewBox="0 0 20 20" fill="none" xmlns="http://www.w3.org/2000/svg">
<path d="M6.91667 5.37484C6.91667 5.77975 6.99642 6.18069 7.15137 6.55478C7.30632 6.92887 7.53344 7.26877 7.81976 7.55508C8.10607 7.8414 8.44597 8.06851 8.82006 8.22347C9.19415 8.37842 9.59509 8.45817 10 8.45817C10.4049 8.45817 10.8059 8.37842 11.1799 8.22347C11.554 8.06851 11.8939 7.8414 12.1802 7.55508C12.4666 7.26877 12.6937 6.92887 12.8486 6.55478C13.0036 6.18069 13.0833 5.77975 13.0833 5.37484C13.0833 4.96993 13.0036 4.56898 12.8486 4.1949C12.6937 3.82081 12.4666 3.48091 12.1802 3.19459C11.8939 2.90828 11.554 2.68116 11.1799 2.52621C10.8059 2.37126 10.4049 2.2915 10 2.2915C9.59509 2.2915 9.19415 2.37126 8.82006 2.52621C8.44597 2.68116 8.10607 2.90828 7.81976 3.19459C7.53344 3.48091 7.30632 3.82081 7.15137 4.1949C6.99642 4.56898 6.91667 4.96993 6.91667 5.37484Z" stroke="black" stroke-width="1.5"/>
<path d="M16.1667 14.2397C16.1667 16.1555 16.1667 17.7085 10 17.7085C3.83333 17.7085 3.83333 16.1555 3.83333 14.2397C3.83333 12.324 6.59424 10.771 10 10.771C13.4058 10.771 16.1667 12.324 16.1667 14.2397Z" stroke="black" stroke-width="1.5"/>
</svg>
