<svg width="20" height="20" viewBox="0 0 20 20" fill="none" xmlns="http://www.w3.org/2000/svg">
<path d="M3.0625 8.77938C3.0625 6.31454 3.0625 5.08214 3.3535 4.66753C3.6445 4.25292 4.80329 3.85626 7.12087 3.06295L7.56241 2.91181C8.77052 2.49827 9.37455 2.2915 10 2.2915C10.6255 2.2915 11.2295 2.49827 12.4376 2.91181L12.8791 3.06295C15.1967 3.85626 16.3555 4.25292 16.6465 4.66753C16.9375 5.08214 16.9375 6.31454 16.9375 8.77938V9.99321C16.9375 14.3392 13.6699 16.4482 11.6198 17.3438C11.0638 17.5867 10.7857 17.7082 10 17.7082C9.21429 17.7082 8.93625 17.5867 8.38014 17.3438C6.33003 16.4482 3.0625 14.3392 3.0625 9.99321V8.77938Z" stroke="black" stroke-width="1.5"/>
<path d="M8.45834 7.68766C8.45834 8.09654 8.62076 8.48867 8.90988 8.77779C9.199 9.0669 9.59113 9.22933 10 9.22933C10.4089 9.22933 10.801 9.0669 11.0901 8.77779C11.3792 8.48867 11.5417 8.09654 11.5417 7.68766C11.5417 7.27879 11.3792 6.88666 11.0901 6.59754C10.801 6.30842 10.4089 6.146 10 6.146C9.59113 6.146 9.199 6.30842 8.90988 6.59754C8.62076 6.88666 8.45834 7.27879 8.45834 7.68766Z" stroke="black" stroke-width="1.5"/>
<path d="M13.0833 12.3127C13.0833 13.1641 13.0833 13.8543 10 13.8543C6.91667 13.8543 6.91667 13.1641 6.91667 12.3127C6.91667 11.4612 8.29712 10.771 10 10.771C11.7028 10.771 13.0833 11.4612 13.0833 12.3127Z" stroke="black" stroke-width="1.5"/>
</svg>
