<svg width="21" height="21" viewBox="0 0 21 21" fill="none" xmlns="http://www.w3.org/2000/svg">
<path d="M2.375 10.5C2.375 6.66983 2.375 4.75476 3.56488 3.56488C4.75476 2.375 6.66983 2.375 10.5 2.375C14.3301 2.375 16.2453 2.375 17.4351 3.56488C18.625 4.75476 18.625 6.66983 18.625 10.5C18.625 14.3301 18.625 16.2453 17.4351 17.4351C16.2453 18.625 14.3301 18.625 10.5 18.625C6.66983 18.625 4.75476 18.625 3.56488 17.4351C2.375 16.2453 2.375 14.3301 2.375 10.5Z" stroke="black" stroke-width="1.5"/>
<path d="M2.375 11.3125H4.94271C5.67816 11.3125 6.04589 11.3125 6.36912 11.4612C6.69236 11.6098 6.93167 11.8891 7.4103 12.4474L7.9022 13.0213C8.38083 13.5797 8.62014 13.859 8.94341 14.0076C9.26663 14.1563 9.63436 14.1562 10.3698 14.1562H10.6302C11.3656 14.1562 11.7334 14.1563 12.0566 14.0076C12.3799 13.859 12.6192 13.5797 13.0978 13.0213L13.5897 12.4474C14.0683 11.8891 14.3076 11.6098 14.6309 11.4612C14.9541 11.3125 15.3219 11.3125 16.0573 11.3125H18.625" stroke="black" stroke-width="1.5" stroke-linecap="round"/>
<path d="M7.25 6.4375H13.75" stroke="black" stroke-width="1.5" stroke-linecap="round"/>
<path d="M8.875 9.28125H12.125" stroke="black" stroke-width="1.5" stroke-linecap="round"/>
</svg>
