<svg width="20" height="20" viewBox="0 0 20 20" fill="none" xmlns="http://www.w3.org/2000/svg">
<path d="M3.0625 8.45817C3.0625 5.55117 3.0625 4.09768 3.96559 3.19459C4.86868 2.2915 6.32217 2.2915 9.22917 2.2915H10.7708C13.6778 2.2915 15.1314 2.2915 16.0344 3.19459C16.9375 4.09768 16.9375 5.55117 16.9375 8.45817V11.5415C16.9375 14.4485 16.9375 15.902 16.0344 16.8051C15.1314 17.7082 13.6778 17.7082 10.7708 17.7082H9.22917C6.32217 17.7082 4.86868 17.7082 3.96559 16.8051C3.0625 15.902 3.0625 14.4485 3.0625 11.5415V8.45817Z" stroke="black" stroke-width="1.5"/>
<path d="M6.91667 10H13.0833" stroke="black" stroke-width="1.5" stroke-linecap="round"/>
<path d="M6.91667 6.9165H13.0833" stroke="black" stroke-width="1.5" stroke-linecap="round"/>
<path d="M6.91667 13.0835H10.7708" stroke="black" stroke-width="1.5" stroke-linecap="round"/>
</svg>
