<svg width="20" height="20" viewBox="0 0 20 20" fill="none" xmlns="http://www.w3.org/2000/svg">
<path d="M11.5417 17.1301H8.45833V18.2863H11.5417V17.1301ZM2.86979 11.5415V8.45821H1.71354V11.5415H2.86979ZM17.1302 11.2046V11.5415H18.2865V11.2046H17.1302ZM12.2286 4.30428L15.2802 7.05068L16.0537 6.19124L13.0022 3.44485L12.2286 4.30428ZM18.2865 11.2046C18.2865 9.90314 18.2981 9.07912 17.9697 8.34179L16.9135 8.81218C17.1186 9.27259 17.1302 9.801 17.1302 11.2046H18.2865ZM15.2802 7.05068C16.3235 7.98962 16.7085 8.35183 16.9135 8.81218L17.9697 8.34179C17.6413 7.60444 17.0211 7.06187 16.0537 6.19124L15.2802 7.05068ZM8.4813 2.86967C9.70061 2.86967 10.1607 2.87859 10.5708 3.03596L10.985 1.95646C10.3285 1.70449 9.61304 1.71342 8.4813 1.71342V2.86967ZM13.0022 3.44485C12.165 2.69144 11.6416 2.2084 10.985 1.95646L10.5708 3.03596C10.981 3.19336 11.327 3.49278 12.2286 4.30428L13.0022 3.44485ZM8.45833 17.1301C6.98849 17.1301 5.94427 17.1289 5.15211 17.0223C4.37659 16.9181 3.92977 16.7225 3.60355 16.3963L2.78596 17.214C3.36282 17.7908 4.0943 18.0468 4.99805 18.1683C5.88515 18.2876 7.02118 18.2863 8.45833 18.2863V17.1301ZM1.71354 11.5415C1.71354 12.9787 1.71232 14.1147 1.83158 15.0018C1.95309 15.9055 2.20909 16.6371 2.78596 17.214L3.60355 16.3963C3.27732 16.0701 3.08179 15.6233 2.97752 14.8478C2.87102 14.0556 2.86979 13.0114 2.86979 11.5415H1.71354ZM11.5417 18.2863C12.9788 18.2863 14.1149 18.2876 15.0019 18.1683C15.9057 18.0468 16.6372 17.7908 17.2141 17.214L16.3965 16.3963C16.0702 16.7225 15.6234 16.9181 14.8479 17.0223C14.0557 17.1289 13.0115 17.1301 11.5417 17.1301V18.2863ZM17.1302 11.5415C17.1302 13.0114 17.129 14.0556 17.0224 14.8478C16.9182 15.6233 16.7227 16.0701 16.3965 16.3963L17.2141 17.214C17.7909 16.6371 18.0469 15.9055 18.1684 15.0018C18.2877 14.1147 18.2865 12.9787 18.2865 11.5415H17.1302ZM2.86979 8.45821C2.86979 6.98837 2.87102 5.94414 2.97752 5.15199C3.08179 4.37646 3.27732 3.92965 3.60355 3.60342L2.78596 2.78583C2.20909 3.3627 1.95309 4.09417 1.83158 4.99792C1.71232 5.88503 1.71354 7.02105 1.71354 8.45821H2.86979ZM8.4813 1.71342C7.03644 1.71342 5.89487 1.7122 5.00413 1.83141C4.0972 1.95279 3.36327 2.20852 2.78596 2.78583L3.60355 3.60342C3.92933 3.27765 4.37751 3.08184 5.15751 2.97745C5.9537 2.87089 7.00386 2.86967 8.4813 2.86967V1.71342Z" fill="black"/>
<path d="M10.7708 2.67725V4.60433C10.7708 6.4212 10.7708 7.32963 11.3352 7.89407C11.8997 8.4585 12.8081 8.4585 14.625 8.4585H17.7083" stroke="black" stroke-width="1.5"/>
<path d="M7.02917 10.7882C7.32208 10.2627 7.46854 10 7.6875 10C7.90646 10 8.05292 10.2627 8.34583 10.7882L8.42161 10.9242C8.50482 11.0735 8.54644 11.1481 8.61135 11.1973C8.67625 11.2466 8.75703 11.2649 8.91868 11.3015L9.06583 11.3348C9.63463 11.4635 9.91906 11.5278 9.98674 11.7454C10.0544 11.963 9.86048 12.1897 9.47275 12.6432L9.37239 12.7605C9.26224 12.8893 9.20712 12.9538 9.1823 13.0335C9.15756 13.1132 9.16588 13.1991 9.18253 13.3711L9.19772 13.5276C9.2563 14.1326 9.28567 14.4351 9.10853 14.5696C8.93132 14.704 8.66507 14.5814 8.1325 14.3362L7.99472 14.2728C7.84338 14.2031 7.76771 14.1683 7.6875 14.1683C7.60729 14.1683 7.53162 14.2031 7.38029 14.2728L7.2425 14.3362C6.70993 14.5814 6.44365 14.704 6.2665 14.5696C6.08936 14.4351 6.11867 14.1326 6.1773 13.5276L6.19247 13.3711C6.20913 13.1991 6.21745 13.1132 6.19267 13.0335C6.16788 12.9538 6.11279 12.8893 6.0026 12.7605L5.90227 12.6432C5.5145 12.1897 5.32062 11.963 5.38828 11.7454C5.45595 11.5278 5.74035 11.4635 6.30914 11.3348L6.4563 11.3015C6.61794 11.2649 6.69875 11.2466 6.76364 11.1973C6.82854 11.1481 6.87016 11.0735 6.95339 10.9242L7.02917 10.7882Z" stroke="black" stroke-width="1.5"/>
</svg>
