<svg width="20" height="20" viewBox="0 0 20 20" fill="none" xmlns="http://www.w3.org/2000/svg">
<path d="M2.29167 13.0835C2.29167 10.9033 2.29167 9.81316 2.96898 9.13583C3.6463 8.4585 4.73642 8.4585 6.91667 8.4585H13.0833C15.2636 8.4585 16.3537 8.4585 17.031 9.13583C17.7083 9.81316 17.7083 10.9033 17.7083 13.0835C17.7083 15.2637 17.7083 16.3538 17.031 17.0312C16.3537 17.7085 15.2636 17.7085 13.0833 17.7085H6.91667C4.73642 17.7085 3.6463 17.7085 2.96898 17.0312C2.29167 16.3538 2.29167 15.2637 2.29167 13.0835Z" stroke="black" stroke-width="1.5"/>
<path d="M10 11.5415V14.6248" stroke="black" stroke-width="1.5" stroke-linecap="round"/>
<path d="M5.375 8.45817V6.9165C5.375 4.36219 7.44568 2.2915 10 2.2915C12.5543 2.2915 14.625 4.36219 14.625 6.9165V8.45817" stroke="black" stroke-width="1.5" stroke-linecap="round"/>
</svg>
