<svg width="24" height="24" viewBox="0 0 24 24" fill="none" xmlns="http://www.w3.org/2000/svg">
<path d="M8 6C8 7.06087 8.42143 8.07828 9.17157 8.82843C9.92172 9.57857 10.9391 10 12 10C13.0609 10 14.0783 9.57857 14.8284 8.82843C15.5786 8.07828 16 7.06087 16 6C16 4.93913 15.5786 3.92172 14.8284 3.17157C14.0783 2.42143 13.0609 2 12 2C10.9391 2 9.92172 2.42143 9.17157 3.17157C8.42143 3.92172 8 4.93913 8 6Z" stroke="black" stroke-width="1.5"/>
<path d="M14 16C14 17.0609 14.4214 18.0783 15.1716 18.8284C15.9217 19.5786 16.9391 20 18 20C19.0609 20 20.0783 19.5786 20.8284 18.8284C21.5786 18.0783 22 17.0609 22 16C22 14.9391 21.5786 13.9217 20.8284 13.1716C20.0783 12.4214 19.0609 12 18 12C16.9391 12 15.9217 12.4214 15.1716 13.1716C14.4214 13.9217 14 14.9391 14 16Z" stroke="black" stroke-width="1.5"/>
<path d="M16.6665 16.0002L17.5 17.0002L19.3332 15.1113" stroke="black" stroke-width="1.5" stroke-linecap="round" stroke-linejoin="round"/>
<path d="M15 13.3271C14.0736 13.1162 13.0609 13 12 13C7.58172 13 4 15.0147 4 17.5C4 19.9853 4 22 12 22C17.6874 22 19.3315 20.9817 19.8068 19.5" stroke="black" stroke-width="1.5"/>
</svg>
