<svg width="21" height="21" viewBox="0 0 21 21" fill="none" xmlns="http://www.w3.org/2000/svg">
<path d="M4 8.99143C4 5.33728 6.91015 2.375 10.5 2.375C14.0899 2.375 17 5.33728 17 8.99143C17 12.617 14.9254 16.8476 11.6886 18.3605C10.9341 18.7132 10.0659 18.7132 9.31139 18.3605C6.07457 16.8476 4 12.617 4 8.99143Z" stroke="black" stroke-width="1.5"/>
<path d="M8.0625 8.875C8.0625 9.52147 8.31931 10.1415 8.77643 10.5986C9.23355 11.0557 9.85353 11.3125 10.5 11.3125C11.1465 11.3125 11.7665 11.0557 12.2236 10.5986C12.6807 10.1415 12.9375 9.52147 12.9375 8.875C12.9375 8.22853 12.6807 7.60855 12.2236 7.15143C11.7665 6.69431 11.1465 6.4375 10.5 6.4375C9.85353 6.4375 9.23355 6.69431 8.77643 7.15143C8.31931 7.60855 8.0625 8.22853 8.0625 8.875Z" stroke="black" stroke-width="1.5"/>
</svg>
