<svg width="25" height="25" viewBox="0 0 25 25" fill="none" xmlns="http://www.w3.org/2000/svg">
<path fill-rule="evenodd" clip-rule="evenodd" d="M8.0769 4.03848C8.0769 3.48089 8.49416 3.02887 9.00886 3.02887H15.2219C15.7366 3.02887 16.1538 3.48089 16.1538 4.03848C16.1538 4.59608 15.7366 5.0481 15.2219 5.0481H9.00886C8.49416 5.0481 8.0769 4.59608 8.0769 4.03848Z" fill="#1D267E"/>
<path fill-rule="evenodd" clip-rule="evenodd" d="M9.87185 21.2019H14.359C17.5101 21.2019 19.0856 21.2019 20.2174 20.4727C20.7073 20.157 21.128 19.7513 21.4554 19.2789C22.2116 18.1875 22.2116 16.6682 22.2116 13.6297C22.2116 10.5912 22.2114 9.07209 21.4552 7.98072C21.1279 7.50825 20.7072 7.1026 20.2172 6.7869C19.0854 6.05768 17.5099 6.05768 14.3589 6.05768H9.87168C6.72065 6.05768 5.14513 6.05768 4.01336 6.7869C3.5234 7.1026 3.10273 7.50825 2.77535 7.98072C2.01929 9.07186 2.01929 10.5904 2.01929 13.6277V13.6297C2.01929 16.6682 2.01929 18.1875 2.77551 19.2789C3.10289 19.7513 3.52356 20.157 4.01352 20.4727C5.1453 21.2019 6.72081 21.2019 9.87185 21.2019ZM7.90871 13.6297C7.90871 11.3893 9.79213 9.57312 12.1154 9.57312C14.4388 9.57312 16.3222 11.3893 16.3222 13.6297C16.3222 15.87 14.4388 17.6862 12.1154 17.6862C9.79213 17.6862 7.90871 15.87 7.90871 13.6297ZM9.5914 13.6297C9.5914 12.2855 10.7215 11.1957 12.1154 11.1957C13.5094 11.1957 14.6395 12.2855 14.6395 13.6297C14.6395 14.9739 13.5094 16.0636 12.1154 16.0636C10.7215 16.0636 9.5914 14.9739 9.5914 13.6297ZM18.2853 9.57312C17.8207 9.57312 17.444 9.93636 17.444 10.3844C17.444 10.8326 17.8207 11.1957 18.2853 11.1957H18.8462C19.3109 11.1957 19.6876 10.8326 19.6876 10.3844C19.6876 9.93636 19.3109 9.57312 18.8462 9.57312H18.2853Z" fill="#1D267E"/>
</svg>
