<svg width="25" height="25" viewBox="0 0 25 25" fill="none" xmlns="http://www.w3.org/2000/svg">
<path fill-rule="evenodd" clip-rule="evenodd" d="M4.03857 5.0481V19.1827C4.03857 20.8555 5.39464 22.2116 7.06742 22.2116H17.1636C18.8364 22.2116 20.1924 20.8555 20.1924 19.1827V9.08656C20.1924 7.41378 18.8364 6.05771 17.1636 6.05771H5.04819C4.4906 6.05771 4.03857 5.60569 4.03857 5.0481ZM7.31982 12.1154C7.31982 11.6972 7.65884 11.3582 8.07704 11.3582H16.154C16.5721 11.3582 16.9112 11.6972 16.9112 12.1154C16.9112 12.5336 16.5721 12.8726 16.154 12.8726H8.07704C7.65884 12.8726 7.31982 12.5336 7.31982 12.1154ZM7.31982 15.6491C7.31982 15.2309 7.65884 14.8918 8.07704 14.8918H13.6299C14.0481 14.8918 14.3871 15.2309 14.3871 15.6491C14.3871 16.0672 14.0481 16.4063 13.6299 16.4063H8.07704C7.65884 16.4063 7.31982 16.0672 7.31982 15.6491Z" fill="#1D267E"/>
<path d="M4.45117 4.12639C4.803 4.28417 5.04807 4.63749 5.04807 5.04806H17.1635C17.5121 5.04806 17.8504 5.09223 18.1731 5.17529V4.34743C18.1731 3.11863 17.0847 2.17472 15.8683 2.34849L4.96688 3.90583C4.77256 3.9336 4.59648 4.01193 4.45117 4.12639Z" fill="#1D267E"/>
</svg>
