<svg width="22" height="22" viewBox="0 0 22 22" fill="none" xmlns="http://www.w3.org/2000/svg">
<path d="M5.6366 8.93887H8.93885" stroke="black" stroke-linecap="round" stroke-linejoin="round"/>
<path d="M18.8437 11.0028C18.8437 10.9389 18.8456 10.563 18.8437 10.536C18.8145 10.1226 18.4599 9.79333 18.0147 9.76617C17.9856 9.76443 17.9513 9.76443 17.8824 9.76443H15.7339C14.2608 9.76443 13.0667 10.8732 13.0667 12.2411C13.0667 13.609 14.2608 14.7178 15.7339 14.7178H17.8824C17.9513 14.7178 17.9856 14.7178 18.0147 14.7161C18.4599 14.6889 18.8145 14.3597 18.8437 13.9462C18.8456 13.9193 18.8456 13.5434 18.8456 13.4795" stroke="black" stroke-linecap="round"/>
<path d="M14.7178 12.2411C14.7178 12.4601 14.8048 12.6701 14.9596 12.8249C15.1144 12.9797 15.3244 13.0667 15.5433 13.0667C15.7623 13.0667 15.9723 12.9797 16.1271 12.8249C16.2819 12.6701 16.3689 12.4601 16.3689 12.2411C16.3689 12.0222 16.2819 11.8122 16.1271 11.6574C15.9723 11.5025 15.7623 11.4156 15.5433 11.4156C15.3244 11.4156 15.1144 11.5025 14.9596 11.6574C14.8048 11.8122 14.7178 12.0222 14.7178 12.2411Z" fill="black"/>
<path d="M8.93887 18.8457H11.4156C14.5289 18.8457 16.0857 18.8457 17.0528 17.8784C17.7201 17.2113 17.927 16.2635 17.9912 14.7178M17.9912 9.76445C17.927 8.21875 17.7201 7.27104 17.0528 6.60383C16.0857 5.63663 14.5289 5.63663 11.4156 5.63663H8.93887C5.82546 5.63663 4.26877 5.63663 3.30156 6.60383C2.33435 7.57105 2.33435 9.12777 2.33435 12.2411C2.33435 15.3545 2.33435 16.9113 3.30156 17.8784C3.8408 18.4177 4.56328 18.6563 5.63661 18.7619" stroke="black" stroke-linecap="round"/>
<path d="M5.6366 5.63661L8.72048 3.59179C9.5889 3.01595 10.7655 3.01595 11.6339 3.59179L14.7178 5.63661" stroke="black" stroke-linecap="round"/>
</svg>
