<svg width="25" height="25" viewBox="0 0 25 25" fill="none" xmlns="http://www.w3.org/2000/svg">
<path d="M18.6896 10.174C18.6896 10.9197 18.0589 11.5243 17.2809 11.5243C16.5029 11.5243 15.8721 10.9197 15.8721 10.174C15.8721 9.42818 16.5029 8.82361 17.2809 8.82361C18.0589 8.82361 18.6896 9.42818 18.6896 10.174Z" fill="#1D267E"/>
<path fill-rule="evenodd" clip-rule="evenodd" d="M18.2098 5.58567C17.1399 5.44779 15.7728 5.4478 14.0467 5.44782H10.1841C8.45812 5.4478 7.09102 5.44779 6.0211 5.58567C4.91999 5.72757 4.02876 6.02655 3.32591 6.70024C2.62307 7.37394 2.31115 8.22821 2.16311 9.28365C2.01926 10.3092 2.01928 11.6196 2.01929 13.2739V13.3756C2.01928 15.03 2.01926 16.3403 2.16311 17.3659C2.31115 18.4214 2.62307 19.2756 3.32591 19.9493C4.02876 20.623 4.91998 20.922 6.0211 21.0639C7.09103 21.2017 8.45812 21.2017 10.1841 21.2017H14.0467C15.7728 21.2017 17.1399 21.2017 18.2098 21.0639C19.3109 20.922 20.2022 20.623 20.905 19.9493C21.6078 19.2756 21.9197 18.4214 22.0677 17.3659C22.2116 16.3403 22.2116 15.03 22.2116 13.3756V13.274C22.2116 11.6196 22.2116 10.3092 22.0677 9.28365C21.9197 8.22821 21.6078 7.37394 20.905 6.70024C20.2022 6.02655 19.3109 5.72757 18.2098 5.58567ZM6.20882 6.92396C5.26392 7.04573 4.71952 7.27409 4.32206 7.65508C3.92459 8.03606 3.68635 8.55787 3.55931 9.46358C3.45741 10.1901 3.43461 11.098 3.42952 12.2856L3.90489 11.8869C5.0398 10.9351 6.7503 10.9897 7.81665 12.0118L11.8455 15.8735C12.2488 16.2602 12.8839 16.3129 13.3506 15.9985L13.6307 15.8099C14.974 14.905 16.7914 15.0098 18.0118 16.0626L20.4426 18.1596C20.542 17.893 20.617 17.5749 20.6715 17.186C20.8014 16.2609 20.8029 15.0414 20.8029 13.3248C20.8029 11.6082 20.8014 10.3887 20.6715 9.46358C20.5445 8.55787 20.3062 8.03606 19.9089 7.65508C19.5114 7.27409 18.967 7.04573 18.0221 6.92396C17.0569 6.79958 15.7847 6.79815 13.9938 6.79815H10.2371C8.44625 6.79815 7.17397 6.79958 6.20882 6.92396Z" fill="#1D267E"/>
<path d="M17.2507 2.6355C16.3826 2.52402 15.2774 2.52403 13.8997 2.52405H10.7803C9.40249 2.52403 8.29727 2.52402 7.4292 2.6355C6.53025 2.75094 5.78077 2.9969 5.18631 3.56471C4.84348 3.89218 4.61259 4.269 4.45532 4.69399C4.96437 4.46178 5.5399 4.32494 6.18607 4.24124C7.28087 4.09942 8.67977 4.09943 10.4459 4.09944H14.3984C16.1646 4.09943 17.5634 4.09942 18.6582 4.24124C19.2226 4.31435 19.733 4.42799 20.1924 4.6103C20.0363 4.21936 19.8138 3.87052 19.4936 3.56471C18.8991 2.9969 18.1497 2.75094 17.2507 2.6355Z" fill="#1D267E"/>
</svg>
