<svg width="16" height="16" viewBox="0 0 16 16" fill="none" xmlns="http://www.w3.org/2000/svg">
<path d="M7.0964 5.35238L6.26676 6.18252C4.8922 7.55793 4.8922 9.78796 6.26676 11.1634C7.6413 12.5388 9.86994 12.5388 11.2445 11.1634L12.9037 9.5031C14.2783 8.12764 14.2783 5.89765 12.9037 4.52224C12.2663 3.88439 11.4452 3.54235 10.6107 3.49609" stroke="white" stroke-width="1.5" stroke-linecap="round"/>
<path d="M8.01466 9.75872L8.84429 8.92857C10.2189 7.55317 10.2189 5.32316 8.84429 3.94773C7.46976 2.57231 5.24112 2.57231 3.86656 3.94773L2.20731 5.60801C0.832751 6.98345 0.832751 9.21342 2.20731 10.5889C2.84476 11.2267 3.66588 11.5687 4.5003 11.615" stroke="white" stroke-width="1.5" stroke-linecap="round"/>
</svg>
