<svg width="21" height="21" viewBox="0 0 21 21" fill="none" xmlns="http://www.w3.org/2000/svg">
<path d="M18.625 8.875C18.64 9.46577 18.625 9.73154 18.625 10.5C18.625 13.5641 18.625 15.0962 17.6731 16.0481C16.7212 17 15.1891 17 12.125 17H8.875C5.81087 17 4.27881 17 3.3269 16.0481C2.375 15.0962 2.375 13.5641 2.375 10.5C2.375 7.43587 2.375 5.90381 3.3269 4.9519C4.27881 4 5.81087 4 8.875 4H11.3125" stroke="black" stroke-width="1.5" stroke-linecap="round"/>
<path d="M5.625 7.25L7.37911 8.71175C8.87137 9.9553 9.61754 10.5771 10.5 10.5771C11.3825 10.5771 12.1287 9.9553 13.6209 8.71175" stroke="black" stroke-width="1.5" stroke-linecap="round"/>
<path d="M13.75 4.8125C13.75 5.45897 14.0068 6.07895 14.4639 6.53607C14.921 6.99319 15.541 7.25 16.1875 7.25C16.834 7.25 17.454 6.99319 17.9111 6.53607C18.3682 6.07895 18.625 5.45897 18.625 4.8125C18.625 4.16603 18.3682 3.54605 17.9111 3.08893C17.454 2.63181 16.834 2.375 16.1875 2.375C15.541 2.375 14.921 2.63181 14.4639 3.08893C14.0068 3.54605 13.75 4.16603 13.75 4.8125Z" stroke="black" stroke-width="1.5"/>
</svg>
