<svg width="24" height="24" viewBox="0 0 24 24" fill="none" xmlns="http://www.w3.org/2000/svg">
<path d="M18.2029 15.4307L19.8073 10.6173C21.209 6.41225 21.9098 4.30973 20.8 3.19989C19.6902 2.09006 17.5877 2.7909 13.3827 4.19257L8.56915 5.79707C5.1753 6.92835 3.47837 7.494 2.99616 8.32347C2.53741 9.11255 2.53741 10.0871 2.99616 10.8762C3.47837 11.7057 5.1753 12.2714 8.56915 13.4026C9.11409 13.5843 9.38656 13.6751 9.6143 13.8276C9.83501 13.9753 10.0246 14.1649 10.1723 14.3856C10.3248 14.6134 10.4157 14.8858 10.5973 15.4307C11.7286 18.8246 12.2942 20.5216 13.1237 21.0037C13.9128 21.4625 14.8874 21.4625 15.6764 21.0037C16.506 20.5216 17.0716 18.8246 18.2029 15.4307Z" stroke="white" stroke-width="1.5"/>
<path d="M15.937 9.05376C16.2123 8.78149 16.2147 8.33759 15.9424 8.06228C15.6702 7.78698 15.2263 7.78452 14.951 8.0568L15.937 9.05376ZM10.7499 14.1836L15.937 9.05376L14.951 8.0568L9.76392 13.1867L10.7499 14.1836Z" fill="white"/>
</svg>
