<svg width="21" height="21" viewBox="0 0 21 21" fill="none" xmlns="http://www.w3.org/2000/svg">
<path d="M12.125 2.375C12.125 2.375 13.9125 2.5375 16.1875 4.8125C18.4625 7.0875 18.625 8.875 18.625 8.875" stroke="black" stroke-width="1.5" stroke-linecap="round"/>
<path d="M12.2932 5.24756C12.2932 5.24756 13.0976 5.47737 14.3041 6.68387C15.5106 7.89038 15.7404 8.69471 15.7404 8.69471" stroke="black" stroke-width="1.5" stroke-linecap="round"/>
<path d="M8.90555 5.06939L9.43286 6.01427C9.90874 6.86697 9.71773 7.98557 8.9682 8.73509C8.96811 8.73519 8.05915 9.64428 9.70741 11.2926C11.3552 12.9403 12.2643 12.0325 12.2649 12.0318C13.0144 11.2823 14.133 11.0913 14.9857 11.5671L15.9306 12.0944C17.2182 12.813 17.3703 14.6187 16.2385 15.7505C15.5585 16.4306 14.7253 16.9598 13.8044 16.9946C12.254 17.0535 9.62112 16.6611 6.98001 14.02C4.33892 11.3789 3.94655 8.74599 4.00532 7.19564C4.04024 6.27468 4.5694 5.44156 5.24947 4.7615C6.38124 3.62973 8.18695 3.7818 8.90555 5.06939Z" stroke="black" stroke-width="1.5" stroke-linecap="round"/>
</svg>
