<svg width="22" height="22" viewBox="0 0 22 22" fill="none" xmlns="http://www.w3.org/2000/svg">
<path d="M8.11194 11.7438L9.52697 13.0645L13.0645 9.76282" stroke="black" stroke-linecap="round" stroke-linejoin="round"/>
<path d="M18.0171 13.8901C18.0171 16.2247 18.0171 17.3921 17.2918 18.1174C16.5665 18.8427 15.3992 18.8427 13.0645 18.8427H8.11199C5.77732 18.8427 4.61 18.8427 3.88471 18.1174C3.15942 17.3921 3.15942 16.2247 3.15942 13.8901V11.4138M13.89 3.98642C15.6853 3.99642 16.6575 4.07603 17.2918 4.71027C18.0171 5.43556 18.0171 6.60289 18.0171 8.93754V10.5884M7.28656 3.98642C5.49123 3.99642 4.51895 4.07603 3.88471 4.71027C3.25049 5.34449 3.17086 6.31673 3.16086 8.11194" stroke="black" stroke-linecap="round"/>
<path d="M7.2865 3.57209C7.2865 2.88829 7.84083 2.33395 8.52464 2.33395H12.6518C13.3356 2.33395 13.8899 2.88829 13.8899 3.57209V4.39752C13.8899 5.08133 13.3356 5.63566 12.6518 5.63566H8.52464C7.84083 5.63566 7.2865 5.08133 7.2865 4.39752V3.57209Z" stroke="black"/>
</svg>
