<svg width="20" height="20" viewBox="0 0 20 20" fill="none" xmlns="http://www.w3.org/2000/svg">
<path d="M11.5417 11.9271C11.5417 10.6499 12.5771 9.61458 13.8542 9.61458C15.1314 9.61458 16.1667 10.6499 16.1667 11.9271C16.1667 13.2043 15.1314 14.2396 13.8542 14.2396C12.5771 14.2396 11.5417 13.2043 11.5417 11.9271Z" stroke="white" stroke-width="1.5"/>
<path d="M3.83325 8.07292C3.83325 9.35012 4.86859 10.3854 6.14575 10.3854C7.42291 10.3854 8.45825 9.35012 8.45825 8.07292C8.45825 6.79577 7.42291 5.76042 6.14575 5.76042C4.86859 5.76042 3.83325 6.79577 3.83325 8.07292Z" stroke="white" stroke-width="1.5"/>
<path d="M13.8223 7.68751V2.29167" stroke="white" stroke-width="1.5" stroke-linecap="round"/>
<path d="M6.11377 12.3125V17.7083" stroke="white" stroke-width="1.5" stroke-linecap="round"/>
<path d="M13.8223 17.7083V16.1667" stroke="white" stroke-width="1.5" stroke-linecap="round"/>
<path d="M6.11377 2.29167V3.83334" stroke="white" stroke-width="1.5" stroke-linecap="round"/>
</svg>
